- 
http://www.Speed.Cd 
       
http://www.Speed.Cd      fast  and The Hottest Private Tracker on the net

(((--Submit for invite!!--)))

Please Seed back to make the speed Faster!!!

------------------nfo--------------------------
-                                             
                               
                                 
                                      
                                      
                                       
    CoaX!&lt;CPH&gt;                         
                               
                         
                            
          
    Team FiCO &lt;Final Coalition&gt; 2k8 Presents:    
    

Give.Me.Your.Hand.2008.SUBBED.DVDRip.XviD-FiCO 
http://www.imdb.com/title/tt0877700/
Subtitles: EN (hardsub)
Date: 2011.09.22

Director: Pascal-Alex Vincent
Genre: Drama 
Plot: Twin 18-year-olds hitchhike to their mother's funeral in Spain. 
The journey changes their lives forever.

Cast
Cast overview, first billed only:
 	Alexandre Carril	 ...	
Antoine
 	Victor Carril	 ...	
Quentin
 	Anas Demoustier	 ...	
Clmentine
 	Samir Harrag	 ...	
Hakim
 	Katrin Sa	 ...	
La Femme du Train
 	Fernando Ramallo	 ...	
Angel
 	Patrick Hauthier	 ...	
L'Homme de la Gare
 	Maya Borker	 ...	
La Femme des Bois
 	Michel Grateau	 ...	
Julian
 	Oswaldo Parma	 ...	
Le vieil Homme dans la Voiture
 	Elsa Malterre	 ...	
Nadge
 	Elodie Meurlarg	 ...	
Mlody (as Elodie Meurlarger)
 	Jean-Pascal Abribat	 ...	
Le Frre de Clmentine
 	Franck Guilbot	 ...	
Le Propritaire de la Ferme
 	Jol Pyrene	 ...	
Vendeur Snack
Full cast and crew 

Stats:
General
Format                           : AVI
Format/Info                      : Audio Video Interleave
File size                        : 696 MiB
Duration                         : 1h 16mn
Overall bit rate                 : 1 268 Kbps
Writing application              : Nandub v1.0rc2
Writing library                  : Nandub build 1853/release

Video
ID                               : 0
Format                           : MPEG-4 Visual
Format profile                   : Advanced Simple@L5
Format settings, BVOP            : Yes
Format settings, QPel            : No
Format settings, GMC             : No warppoints
Format settings, Matrix          : Default (H.263)
Codec ID                         : XVID
Codec ID/Hint                    : XviD
Duration                         : 1h 16mn
Bit rate                         : 1 034 Kbps
Width                            : 640 pixels
Height                           : 272 pixels
Display aspect ratio             : 2.35:1
Frame rate                       : 25.000 fps
Resolution                       : 8 bits
Colorimetry                      : 4:2:0
Scan type                        : Progressive
Bits/(Pixel*Frame)               : 0.238
Stream size                      : 568 MiB (82%)
Writing library                  : XviD 61

Audio
ID                               : 1
Format                           : AC-3
Format/Info                      : Audio Coding 3
Format_Settings_ModeExtension    : CM (complete main)
Codec ID                         : 2000
Duration                         : 1h 16mn
Bit rate mode                    : Constant
Bit rate                         : 224 Kbps
Channel(s)                       : 2 channels
Channel positions                : Front: L R
Sampling rate                    : 48.0 KHz
Stream size                      : 123 MiB (18%)
Alignment                        : Split accross interleaves
Interleave, duration             : 40 ms (1.00 video frame)
Interleave, preload duration     : 500 ms




Release notes:
enjoy!


                                                                     
                                                             
                                                               
                                                               
                       
      
              Greetz from Team FiCO:               
              
                                                             
                                                             
           BLooDWeiSeR,CULTXviD,SiCK,DoNE,LAP,TH30R1STS              
                                                                             
               WinBeta, DvF, WASTE, BERC, KALEVALA, Jiggly                   
                                                                             
                                                             
                                       
                             
                      
                  
           
            
                    
                  
                
                            
                                        
                                        
                                            
                                                    
                                                              
                      you know where to find us...                     
                        
   NFO By: CoaXCable/CoolPHat &lt;#CPH&gt;